<?xml version="1.0" encoding="UTF-8" standalone="no"?>
<!-- Created with Inkscape (http://www.inkscape.org/) -->

<svg
   width="37.784657mm"
   height="21.54599mm"
   viewBox="0 0 37.784657 21.54599"
   version="1.1"
   id="svg5"
   inkscape:version="1.2 (dc2aeda, 2022-05-15)"
   sodipodi:docname="hg23_draft.svg"
   xmlns:inkscape="http://www.inkscape.org/namespaces/inkscape"
   xmlns:sodipodi="http://sodipodi.sourceforge.net/DTD/sodipodi-0.dtd"
   xmlns="http://www.w3.org/2000/svg"
   xmlns:svg="http://www.w3.org/2000/svg">
  <sodipodi:namedview
     id="namedview7"
     pagecolor="#ffffff"
     bordercolor="#000000"
     borderopacity="0.25"
     inkscape:showpageshadow="2"
     inkscape:pageopacity="0.0"
     inkscape:pagecheckerboard="0"
     inkscape:deskcolor="#d1d1d1"
     inkscape:document-units="mm"
     showgrid="false"
     inkscape:zoom="2.2599857"
     inkscape:cx="85.177531"
     inkscape:cy="539.38395"
     inkscape:window-width="1440"
     inkscape:window-height="872"
     inkscape:window-x="0"
     inkscape:window-y="0"
     inkscape:window-maximized="1"
     inkscape:current-layer="layer1" />
  <defs
     id="defs2" />
  <g
     inkscape:label="Layer 1"
     inkscape:groupmode="layer"
     id="layer1"
     transform="translate(-18.863064,-100.29751)">
    <g
       id="g408"
       inkscape:export-filename="hg23_logo.png"
       inkscape:export-xdpi="96"
       inkscape:export-ydpi="96">
      <g
         aria-label="H"
         id="text186"
         style="font-size:19.7556px;font-family:'IBM Plex Mono';-inkscape-font-specification:'IBM Plex Mono';direction:rtl;fill:#2d5fa1;stroke-width:0.264583">
        <path
           d="m 18.863065,100.64778 h 4.207943 v 4.48452 h 2.350916 v -4.48452 h 4.227698 v 13.17698 h -4.227698 v -4.87963 h -2.350916 v 4.87963 h -4.207943 z m 2.489205,11.59653 v -4.99816 h 5.808147 v 4.99816 h 0.513645 v -10.01609 h -0.513645 v 4.54379 H 21.35227 v -4.54379 h -0.513645 v 10.01609 z"
           style="font-family:Phosphate;-inkscape-font-specification:Phosphate"
           id="path410" />
      </g>
      <g
         aria-label="G "
         id="text240"
         style="font-size:19.7556px;font-family:Phosphate;-inkscape-font-specification:Phosphate;direction:rtl;fill:#2d5fa1;stroke-width:0.264583">
        <path
           d="m 36.846484,105.09812 q -0.3556,-0.31609 -0.889002,-0.47414 -0.533401,-0.1778 -1.047046,-0.1778 -0.572913,0 -1.047047,0.21731 -0.474135,0.19756 -0.829735,0.57292 -0.335846,0.3556 -0.533402,0.86924 -0.197556,0.51365 -0.197556,1.10632 0,0.59266 0.217312,1.10631 0.217312,0.51365 0.592668,0.889 0.375356,0.3556 0.869246,0.57291 0.513646,0.19756 1.086558,0.19756 0.671691,0 1.224848,-0.27658 0.553156,-0.29633 0.948268,-0.79022 H 36.05626 v -2.76579 h 5.07719 v 4.38575 q -0.454379,0.80998 -1.086558,1.48167 -0.63218,0.65193 -1.422404,1.12607 -0.770468,0.47413 -1.679226,0.73095 -0.908757,0.25683 -1.876782,0.25683 -1.422403,0 -2.686761,-0.53341 -1.264359,-0.5334 -2.212627,-1.46191 -0.928514,-0.92851 -1.48167,-2.19287 -0.533402,-1.26436 -0.533402,-2.72627 0,-1.42241 0.513646,-2.68677 0.513646,-1.26435 1.402648,-2.19287 0.908757,-0.94827 2.133604,-1.48167 1.244603,-0.55315 2.667006,-0.55315 1.106314,0 1.916294,0.21731 0.809979,0.21731 1.363136,0.49389 0.651935,0.31609 1.086558,0.69144 z m 0.197556,-2.54848 q -0.256822,-0.11853 -0.572912,-0.19755 -0.276578,-0.079 -0.651935,-0.13829 -0.375356,-0.0593 -0.829735,-0.0593 -1.047047,0 -1.955804,0.37536 -0.908758,0.37536 -1.580448,1.04705 -0.671691,0.65193 -1.066803,1.58044 -0.375356,0.92852 -0.375356,2.05459 0,1.12607 0.395112,2.05458 0.395112,0.92851 1.086558,1.6002 0.691446,0.65194 1.600203,1.02729 0.928514,0.37536 1.97556,0.37536 1.363137,0 2.46945,-0.63218 1.106314,-0.65193 1.79776,-1.71874 v -2.58798 h -2.094094 v 0.47413 h 1.580448 v 1.97556 q -0.612423,0.90876 -1.600203,1.44216 -0.968025,0.5334 -2.153361,0.5334 -0.948268,0 -1.778004,-0.31609 -0.809979,-0.33584 -1.442158,-0.92851 -0.612424,-0.61242 -0.968025,-1.44216 -0.355601,-0.84949 -0.355601,-1.85702 0,-1.00754 0.335846,-1.83727 0.3556,-0.8495 0.948268,-1.44216 0.612424,-0.61243 1.422404,-0.92852 0.809979,-0.33584 1.758248,-0.33584 0.355601,0 0.67169,0.0593 0.31609,0.0593 0.553157,0.11854 0.276579,0.079 0.513646,0.15804 z"
           id="path413" />
      </g>
      <g
         aria-label="23"
         id="text244"
         style="font-size:22.9306px;font-family:'IBM Plex Mono';-inkscape-font-specification:'IBM Plex Mono';direction:rtl;fill:#2d5fa1;stroke-width:0.264583">
        <path
           d="m 41.444774,114.32225 q 0.481543,-0.91722 0.619127,-1.37584 0.137583,-0.45861 0.137583,-0.87136 0,-1.53635 -1.880309,-1.53635 -0.183445,0 -0.343959,0.0229 -0.160514,0 -0.298098,0.0229 -0.114653,0.0229 -0.298098,0.0229 v -4.24216 q 0.321029,-0.0688 0.573265,-0.11465 0.252237,-0.0459 0.481543,-0.0688 0.252237,-0.0229 0.504473,-0.0229 0.275167,-0.0229 0.619126,-0.0229 1.100669,0 2.155477,0.25223 1.077738,0.22931 1.92617,0.77964 0.848432,0.55034 1.375836,1.46756 0.527404,0.91723 0.527404,2.2472 0,0.61913 -0.137584,1.23825 -0.137583,0.5962 -0.435681,1.30705 -0.275167,0.71085 -0.733779,1.60514 -0.435682,0.87136 -1.031877,2.04082 l -0.298098,0.57327 H 47.79655 L 46.489506,121.66 h -8.897072 z m 3.80648,5.50334 0.206375,-0.55033 h -3.760618 l 2.591158,-4.90715 q 0.41275,-0.80257 0.664987,-1.55928 0.275167,-0.75671 0.275167,-1.53635 0,-1.51342 -0.986016,-2.29306 -0.963085,-0.77964 -2.499435,-0.77964 -0.06879,0 -0.137583,0.0229 -0.04586,0 -0.09172,0 h -0.06879 v 0.55034 h 0.06879 q 0.04586,0 0.09172,0 0.06879,-0.0229 0.137583,-0.0229 1.307044,0 2.086685,0.66499 0.802571,0.64206 0.802571,1.88031 0,0.64206 -0.229306,1.35291 -0.229306,0.68791 -0.642057,1.49049 l -3.003909,5.68678 z"
           style="font-family:Phosphate;-inkscape-font-specification:Phosphate"
           id="path416" />
        <path
           d="m 48.25512,117.55546 q 0.252237,0.0459 0.458612,0.0459 0.229306,0 0.435682,0 0.733779,0 1.215322,-0.13759 0.504473,-0.16051 0.77964,-0.41275 0.298098,-0.25224 0.412751,-0.55033 0.137583,-0.32103 0.137583,-0.66499 0,-0.48154 -0.321028,-0.91722 -0.321028,-0.43569 -0.802571,-0.80258 -0.481543,-0.36688 -1.031877,-0.64205 -0.550334,-0.2981 -0.986016,-0.50448 0.38982,-0.25223 0.779641,-0.5274 0.38982,-0.27517 0.687918,-0.55033 0.321028,-0.2981 0.504473,-0.57327 0.183445,-0.27517 0.183445,-0.5274 0,-0.41275 -0.321029,-0.55034 -0.298098,-0.16051 -0.664987,-0.16051 -0.573265,0 -1.031877,0.11465 l -0.435682,0.11466 v -3.85235 l 0.75671,-0.13758 q 0.38982,-0.0459 0.963085,-0.0917 0.596196,-0.0459 1.398767,-0.0459 2.270129,0 3.324937,1.03187 1.054807,1.00895 1.054807,2.65995 0,0.57327 -0.183444,1.05481 -0.183445,0.45861 -0.412751,0.80257 -0.114653,0.20638 -0.275167,0.38982 -0.137584,0.18345 -0.298098,0.36689 0.298098,0.22931 0.550334,0.50448 0.252237,0.25223 0.481543,0.55033 0.38982,0.5274 0.710848,1.26118 0.321029,0.73378 0.321029,1.65101 0,1.42169 -0.596196,2.45357 -0.573265,1.00895 -1.559281,1.67393 -0.986015,0.64206 -2.29306,0.96309 -1.284113,0.2981 -2.68288,0.2981 -0.229306,0 -0.550334,0 -0.298098,0 -0.710849,-0.0229 z m 1.90324,2.43065 q 0.894294,0 1.651003,-0.25224 0.779641,-0.25224 1.352906,-0.73378 0.596195,-0.48154 0.917224,-1.14653 0.343959,-0.68792 0.343959,-1.55928 0,-1.05481 -0.527404,-1.88031 -0.527404,-0.8255 -1.788587,-1.76565 0.848432,-0.80257 1.123599,-1.35291 0.298098,-0.57326 0.298098,-1.16946 0,-0.96308 -0.733779,-1.46756 -0.710849,-0.5274 -1.673934,-0.5274 -0.229306,0 -0.41275,0.0229 -0.183445,0 -0.321029,0.0229 l -0.298098,0.0459 v 0.50447 q 0.137584,0 0.252237,-0.0229 0.114653,-0.0229 0.321028,-0.0229 0.206376,-0.0229 0.458612,-0.0229 0.802571,0 1.307044,0.38982 0.504474,0.38982 0.504474,1.1236 0,0.66499 -0.435682,1.26118 -0.435681,0.57327 -1.238252,1.26119 0.664987,0.45861 1.14653,0.87136 0.504473,0.41275 0.802571,0.8255 0.321028,0.41275 0.458612,0.87136 0.160514,0.45862 0.160514,1.03188 0,0.75671 -0.298098,1.35291 -0.275167,0.57326 -0.77964,0.98601 -0.504473,0.38982 -1.169461,0.5962 -0.664987,0.20637 -1.421697,0.20637 h -0.137583 v 0.55034 z"
           style="font-family:Phosphate;-inkscape-font-specification:Phosphate"
           id="path418" />
      </g>
    </g>
  </g>
</svg>
